<svg xmlns="http://www.w3.org/2000/svg" viewBox="0 0 640 360" role="img" aria-label="Variogramme experimental et modele spherique ajuste"><title>Variogramme experimental et modele spherique ajuste</title><rect width="640" height="360" fill="#0D5F99"/><g stroke="#1A7BBD" stroke-width="1" opacity="0.28"><line x1="40" y1="0" x2="40" y2="360"/><line x1="80" y1="0" x2="80" y2="360"/><line x1="120" y1="0" x2="120" y2="360"/><line x1="160" y1="0" x2="160" y2="360"/><line x1="200" y1="0" x2="200" y2="360"/><line x1="240" y1="0" x2="240" y2="360"/><line x1="280" y1="0" x2="280" y2="360"/><line x1="320" y1="0" x2="320" y2="360"/><line x1="360" y1="0" x2="360" y2="360"/><line x1="400" y1="0" x2="400" y2="360"/><line x1="440" y1="0" x2="440" y2="360"/><line x1="480" y1="0" x2="480" y2="360"/><line x1="520" y1="0" x2="520" y2="360"/><line x1="560" y1="0" x2="560" y2="360"/><line x1="600" y1="0" x2="600" y2="360"/><line x1="0" y1="40" x2="640" y2="40"/><line x1="0" y1="80" x2="640" y2="80"/><line x1="0" y1="120" x2="640" y2="120"/><line x1="0" y1="160" x2="640" y2="160"/><line x1="0" y1="200" x2="640" y2="200"/><line x1="0" y1="240" x2="640" y2="240"/><line x1="0" y1="280" x2="640" y2="280"/><line x1="0" y1="320" x2="640" y2="320"/></g><g stroke="#9FCFED" stroke-width="2" stroke-linecap="round" opacity="0.8"><line x1="80" y1="50" x2="80" y2="300"/><line x1="80" y1="300" x2="580" y2="300"/></g><line x1="80" y1="95.0" x2="580" y2="95.0" stroke="#5BAEE0" stroke-width="1.5" stroke-dasharray="6 5" opacity="0.75"/><line x1="420.0" y1="95.0" x2="420.0" y2="300" stroke="#5BAEE0" stroke-width="1.5" stroke-dasharray="6 5" opacity="0.75"/><line x1="72" y1="254.9" x2="88" y2="254.9" stroke="#D6ECFA" stroke-width="3"/><polyline points="80.0,254.9 85.0,251.4 90.0,247.8 95.0,244.3 100.0,240.8 105.0,237.3 110.0,233.8 115.0,230.3 120.0,226.8 125.0,223.3 130.0,219.9 135.0,216.4 140.0,213.0 145.0,209.6 150.0,206.2 155.0,202.9 160.0,199.5 165.0,196.2 170.0,192.9 175.0,189.6 180.0,186.4 185.0,183.2 190.0,180.0 195.0,176.9 200.0,173.8 205.0,170.7 210.0,167.7 215.0,164.7 220.0,161.7 225.0,158.8 230.0,155.9 235.0,153.1 240.0,150.4 245.0,147.6 250.0,145.0 255.0,142.3 260.0,139.8 265.0,137.3 270.0,134.8 275.0,132.4 280.0,130.1 285.0,127.8 290.0,125.6 295.0,123.4 300.0,121.4 305.0,119.3 310.0,117.4 315.0,115.5 320.0,113.7 325.0,112.0 330.0,110.3 335.0,108.7 340.0,107.2 345.0,105.8 350.0,104.5 355.0,103.2 360.0,102.0 365.0,100.9 370.0,99.9 375.0,99.0 380.0,98.2 385.0,97.5 390.0,96.8 395.0,96.3 400.0,95.8 405.0,95.5 410.0,95.2 415.0,95.1 420.0,95.0 425.0,95.0 430.0,95.0 435.0,95.0 440.0,95.0 445.0,95.0 450.0,95.0 455.0,95.0 460.0,95.0 465.0,95.0 470.0,95.0 475.0,95.0 480.0,95.0 485.0,95.0 490.0,95.0 495.0,95.0 500.0,95.0 505.0,95.0 510.0,95.0 515.0,95.0 520.0,95.0 525.0,95.0 530.0,95.0 535.0,95.0 540.0,95.0 545.0,95.0 550.0,95.0 555.0,95.0 560.0,95.0 565.0,95.0 570.0,95.0 575.0,95.0" fill="none" stroke="#FFFFFF" stroke-width="3.5" stroke-linecap="round"/><circle cx="110.0" cy="238.8" r="5" fill="#2B91D4" stroke="#D6ECFA" stroke-width="2"/><circle cx="144.0" cy="220.3" r="5" fill="#2B91D4" stroke="#D6ECFA" stroke-width="2"/><circle cx="178.0" cy="183.3" r="5" fill="#2B91D4" stroke="#D6ECFA" stroke-width="2"/><circle cx="212.0" cy="178.7" r="5" fill="#2B91D4" stroke="#D6ECFA" stroke-width="2"/><circle cx="246.0" cy="146.1" r="5" fill="#2B91D4" stroke="#D6ECFA" stroke-width="2"/><circle cx="280.0" cy="133.9" r="5" fill="#2B91D4" stroke="#D6ECFA" stroke-width="2"/><circle cx="314.0" cy="128.6" r="5" fill="#2B91D4" stroke="#D6ECFA" stroke-width="2"/><circle cx="348.0" cy="104.8" r="5" fill="#2B91D4" stroke="#D6ECFA" stroke-width="2"/><circle cx="382.0" cy="111.2" r="5" fill="#2B91D4" stroke="#D6ECFA" stroke-width="2"/><circle cx="416.0" cy="96.9" r="5" fill="#2B91D4" stroke="#D6ECFA" stroke-width="2"/><circle cx="450.0" cy="107.3" r="5" fill="#2B91D4" stroke="#D6ECFA" stroke-width="2"/><circle cx="484.0" cy="106.7" r="5" fill="#2B91D4" stroke="#D6ECFA" stroke-width="2"/><circle cx="518.0" cy="97.2" r="5" fill="#2B91D4" stroke="#D6ECFA" stroke-width="2"/><circle cx="552.0" cy="85.6" r="5" fill="#2B91D4" stroke="#D6ECFA" stroke-width="2"/><text x="66" y="54" fill="#D6ECFA" font-size="19" font-family="Georgia,serif" font-style="italic" text-anchor="end">&#947;</text><text x="586" y="305" fill="#D6ECFA" font-size="19" font-family="Georgia,serif" font-style="italic">h</text></svg>